<?xml version="1.0" standalone="no"?>
<!DOCTYPE svg PUBLIC "-//W3C//DTD SVG 20010904//EN"
 "http://www.w3.org/TR/2001/REC-SVG-20010904/DTD/svg10.dtd">
<svg version="1.0" xmlns="http://www.w3.org/2000/svg"
 width="360.000000pt" height="360.000000pt" viewBox="0 0 360.000000 360.000000"
 preserveAspectRatio="xMidYMid meet">

<g transform="translate(0.000000,360.000000) scale(0.100000,-0.100000)"
fill="#000000" stroke="none">
<path d="M1649 2880 c-46 -13 -69 -30 -86 -63 -16 -29 -18 -80 -23 -555 l-5
-522 -165 163 c-173 171 -193 184 -261 170 -17 -3 -46 -21 -64 -38 -40 -40
-50 -93 -29 -144 19 -46 583 -608 619 -617 15 -4 45 -4 67 -1 39 5 62 27 341
305 297 297 299 300 305 347 7 64 -17 108 -74 135 -79 39 -97 29 -285 -156
-91 -90 -168 -164 -172 -164 -4 0 -7 238 -7 530 l0 529 -31 35 c-38 44 -84 60
-130 46z"/>
<path d="M680 1523 c-19 -10 -45 -33 -57 -52 -23 -33 -23 -38 -23 -340 0 -286
1 -308 20 -338 40 -67 -23 -63 1062 -63 940 0 984 1 1011 19 62 40 62 39 65
356 2 160 1 304 -3 322 -14 75 -99 127 -170 103 -19 -6 -48 -27 -65 -46 l-30
-35 0 -224 0 -225 -810 0 -810 0 0 218 c0 197 -2 220 -20 249 -38 63 -110 86
-170 56z"/>
</g>
</svg>
