<?xml version="1.0" standalone="no"?>
<!DOCTYPE svg PUBLIC "-//W3C//DTD SVG 20010904//EN"
 "http://www.w3.org/TR/2001/REC-SVG-20010904/DTD/svg10.dtd">
<svg version="1.0" xmlns="http://www.w3.org/2000/svg"
 width="284.000000pt" height="177.000000pt" viewBox="0 0 284.000000 177.000000"
 preserveAspectRatio="xMidYMid meet">

<g transform="translate(0.000000,177.000000) scale(0.100000,-0.100000)"
fill="#000000" stroke="none">
<path d="M0 1600 l0 -170 1272 0 1273 0 147 147 c104 103 148 155 148 170 l0
23 -1420 0 -1420 0 0 -170z"/>
<path d="M940 1222 c-25 -1 -81 -10 -125 -18 -44 -8 -136 -17 -205 -20 -69 -3
-136 -8 -150 -11 -52 -13 -80 -15 -267 -20 l-193 -5 0 -49 0 -49 48 -1 c26 -1
53 -1 61 0 11 2 11 0 0 -12 -8 -8 -16 -12 -19 -8 -3 3 -24 6 -48 6 -34 0 -42
-3 -42 -18 0 -15 7 -18 33 -15 27 3 31 0 29 -17 -5 -25 -5 -25 -32 -30 -42 -8
-34 -15 19 -15 l51 0 -3 35 c-3 19 0 35 4 35 5 0 10 -4 10 -10 1 -5 2 -14 3
-19 0 -5 4 -13 9 -17 4 -4 7 -12 7 -17 0 -6 -3 -8 -6 -4 -4 3 -13 0 -21 -8 -8
-9 -33 -15 -59 -15 l-44 0 0 -460 0 -460 1420 0 1420 0 0 463 0 462 -180 -3
c-132 -3 -180 -1 -180 8 0 6 -4 9 -8 6 -4 -2 -14 -1 -22 5 -11 6 -12 9 -2 9 7
0 11 4 8 8 -3 5 1 9 9 9 8 0 13 -5 12 -11 -1 -6 5 -9 13 -7 8 2 22 3 30 2 45
-8 321 -8 300 -1 -24 8 -24 8 -2 9 19 1 22 6 22 41 l0 40 -206 0 c-130 0 -221
-4 -246 -12 -27 -8 -42 -8 -46 -1 -4 5 -14 13 -22 16 -8 3 1 6 20 5 19 -1 140
-1 268 0 l232 2 0 50 0 50 -482 0 c-478 0 -484 1 -569 24 -47 13 -126 29 -175
35 -85 10 -580 20 -674 13z m41 -66 c33 -23 38 -30 28 -42 -10 -12 -9 -13 3
-9 19 7 60 -69 51 -93 -4 -9 -2 -13 4 -9 12 8 39 -60 29 -70 -3 -4 -6 1 -6 10
0 9 -5 17 -10 17 -13 0 -41 61 -34 72 3 5 1 8 -5 8 -14 0 -66 -69 -84 -112 -9
-21 -18 -38 -21 -38 -3 0 2 16 9 34 11 25 12 37 4 42 -16 10 -258 28 -266 20
-15 -15 17 -26 87 -31 51 -3 68 -2 55 4 -18 9 -17 10 7 10 35 1 44 -15 17 -30
-17 -9 -19 -13 -8 -20 8 -5 14 -19 14 -31 0 -28 42 -39 51 -14 3 9 10 13 16
10 5 -3 51 5 101 19 51 14 115 29 142 33 40 5 46 8 30 15 -13 6 -6 7 20 2 22
-3 78 -6 125 -6 80 1 82 1 30 -7 -30 -4 -77 -9 -105 -10 l-50 -2 40 -8 c53
-11 183 -14 216 -5 15 4 73 2 129 -4 160 -16 451 3 560 36 l85 25 -72 36 c-71
35 -89 52 -58 52 8 0 23 -9 32 -19 13 -15 21 -17 42 -10 23 8 24 7 9 -4 -16
-12 -12 -16 34 -38 51 -24 51 -24 22 -31 -21 -5 -13 -6 26 -5 37 1 66 -5 90
-18 19 -10 40 -18 46 -17 6 1 18 -5 25 -15 12 -15 12 -16 -1 -8 -11 6 -10 3 3
-12 21 -24 50 -27 42 -4 -3 9 4 5 16 -9 17 -20 20 -21 14 -5 -3 11 -2 16 2 11
4 -4 8 -31 8 -59 0 -37 4 -51 13 -49 7 1 15 -5 18 -13 4 -8 10 -15 15 -15 12
0 11 37 -2 63 -9 20 -8 19 11 -3 13 -15 20 -33 17 -47 -2 -13 0 -23 5 -23 5 0
7 -4 4 -8 -2 -4 9 -9 25 -10 35 -3 35 0 8 41 l-21 32 26 -30 c31 -36 32 -45 6
-52 -11 -3 -20 -10 -19 -17 3 -27 -2 -47 -11 -41 -6 3 -7 -1 -4 -9 6 -17 34
-22 34 -7 0 5 8 12 18 15 9 3 1 -8 -18 -24 -19 -17 -41 -30 -50 -30 -9 0 -20
-3 -26 -8 -5 -4 -6 -3 -1 3 16 20 5 43 -40 85 l-48 45 43 -45 c23 -25 42 -51
42 -57 0 -26 -161 -72 -259 -75 l-76 -2 68 -3 c37 -2 67 -7 67 -11 -1 -28 -21
-31 -177 -29 l-161 2 -12 -101 c-6 -55 -15 -106 -20 -113 -5 -9 -58 -16 -178
-23 l-170 -10 -41 28 c-23 14 -41 27 -41 28 0 1 59 5 225 15 l110 6 35 52 c19
29 43 52 53 53 11 0 17 8 18 23 0 12 2 33 5 46 4 21 2 23 -23 15 -48 -13 -271
-8 -290 7 -14 12 -13 14 8 20 16 4 4 8 -41 13 -36 4 -98 14 -138 23 -41 8 -75
13 -77 11 -2 -2 37 -14 87 -28 90 -23 91 -24 67 -39 -41 -27 -204 -177 -233
-215 -26 -34 -30 -36 -85 -36 -64 0 -71 6 -71 63 l0 32 -21 -32 c-25 -39 -82
-76 -106 -70 -15 4 -14 5 3 6 28 1 76 40 68 53 -4 6 -2 8 4 4 6 -3 20 7 32 24
19 27 20 38 14 115 -4 46 -10 83 -14 80 -4 -2 -5 7 -2 21 3 17 9 23 21 20 51
-15 71 -17 71 -7 0 6 -21 17 -47 24 -38 10 -49 18 -61 47 -8 19 -15 45 -16 57
0 11 -4 19 -8 17 -4 -3 -12 6 -19 18 -25 50 -72 88 -106 88 -47 0 -74 -31
-114 -131 -27 -70 -33 -97 -34 -164 0 -44 3 -93 7 -110 6 -27 4 -30 -17 -31
-21 -2 -22 0 -10 13 17 16 20 49 6 58 -6 3 -66 12 -134 20 -68 8 -137 19 -153
25 -16 6 -81 14 -146 17 l-118 6 -5 31 c-3 17 -12 90 -21 161 -16 131 -31 184
-61 217 -31 34 -70 19 -84 -33 -7 -27 -7 -23 -3 20 7 75 17 89 82 119 42 19
71 25 112 24 30 -1 98 -2 152 -2 79 1 102 -3 130 -20 58 -35 61 -35 82 -5 12
15 29 37 40 49 18 21 18 21 3 -4 -14 -24 -13 -26 11 -38 14 -7 45 -12 68 -12
33 0 46 -5 61 -24 10 -13 32 -27 49 -31 27 -5 35 -1 58 25 34 41 33 59 -6 100
-29 29 -30 32 -8 20 l25 -12 -21 22 c-22 23 -80 40 -129 38 -30 -1 -30 -1 5
-9 25 -6 17 -7 -30 -3 -49 3 -61 2 -50 -7 12 -8 8 -9 -15 -4 -16 3 -34 11 -40
17 -7 7 -7 9 0 5 6 -3 26 -1 45 3 19 5 65 8 102 6 54 -3 77 -9 109 -30z m-324
-2 c-3 -3 -12 -4 -19 -1 -8 3 -5 6 6 6 11 1 17 -2 13 -5z m270 0 c-3 -3 -12
-4 -19 -1 -8 3 -5 6 6 6 11 1 17 -2 13 -5z m-318 -14 c-18 -11 -198 -60 -214
-59 -15 1 31 18 120 44 87 26 122 31 94 15z m-306 -17 c-7 -2 -19 -2 -25 0 -7
3 -2 5 12 5 14 0 19 -2 13 -5z m407 3 c0 -2 -8 -10 -17 -17 -16 -13 -17 -12
-4 4 13 16 21 21 21 13z m-477 -13 c-13 -2 -35 -2 -50 0 -16 2 -5 4 22 4 28 0
40 -2 28 -4z m407 3 c0 -2 -8 -10 -17 -17 -16 -13 -17 -12 -4 4 13 16 21 21
21 13z m1380 -26 c8 -5 11 -10 5 -10 -5 0 -17 5 -25 10 -8 5 -10 10 -5 10 6 0
17 -5 25 -10z m-1330 -30 c-12 -16 -24 -30 -26 -30 -3 0 4 14 16 30 12 17 24
30 26 30 3 0 -4 -13 -16 -30z m-504 -17 c-4 -5 -17 -8 -29 -8 -11 0 -21 -6
-23 -13 -1 -7 0 -8 3 -2 2 5 9 10 14 10 5 0 4 -9 -3 -20 -10 -16 -14 -17 -20
-6 -14 25 2 46 35 46 17 0 27 -3 23 -7z m2104 -2 c0 -5 -12 -14 -27 -20 -25
-10 -24 -11 12 -5 38 5 39 5 20 -11 -19 -15 -18 -15 16 -9 23 3 46 1 60 -7 26
-14 31 -16 55 -18 8 0 13 -5 9 -10 -3 -6 -18 -6 -38 0 -49 14 -55 11 -19 -11
17 -11 32 -22 32 -25 0 -2 -15 4 -32 15 -18 11 -33 25 -33 32 0 8 -11 12 -28
10 -29 -3 -87 17 -87 30 0 3 -3 13 -6 22 -5 13 1 16 30 16 20 0 36 -4 36 -9z
m-1395 -124 c2 -26 0 -47 -5 -47 -4 0 -10 23 -12 50 -1 28 1 49 6 47 4 -1 10
-24 11 -50z m177 37 c19 -12 6 -23 -18 -14 -14 6 -36 10 -50 10 -13 0 -24 5
-24 11 0 11 71 6 92 -7z m-856 -13 c-3 -5 -16 -11 -28 -14 -22 -6 -22 -5 -4 8
22 17 40 20 32 6z m1217 -18 c-18 -2 -48 -2 -65 0 -18 2 -4 4 32 4 36 0 50 -2
33 -4z m-1208 -13 c3 -6 -1 -7 -9 -4 -18 7 -21 14 -7 14 6 0 13 -4 16 -10z
m-45 -20 c0 -5 -5 -10 -11 -10 -5 0 -7 5 -4 10 3 6 8 10 11 10 2 0 4 -4 4 -10z
m2287 -5 c0 -8 -4 -12 -9 -9 -5 3 -6 10 -3 15 9 13 12 11 12 -6z m-2212 -51
c2 -21 2 -30 -1 -19 -3 11 -10 33 -15 50 -7 21 -6 26 1 19 6 -6 13 -28 15 -50z
m2346 -21 c13 -16 12 -17 -3 -4 -10 7 -18 15 -18 17 0 8 8 3 21 -13z m-1533
-18 c3 -3 -8 -5 -24 -6 -26 0 -27 -1 -9 -10 18 -8 17 -9 -4 -5 -15 3 -37 -3
-55 -15 l-31 -21 30 26 c17 15 35 30 40 35 10 9 43 6 53 -4z m-801 -37 c-3 -8
-6 -5 -6 6 -1 11 2 17 5 13 3 -3 4 -12 1 -19z m820 16 c-3 -3 -12 -4 -19 -1
-8 3 -5 6 6 6 11 1 17 -2 13 -5z m-879 -21 c-10 -2 -26 -2 -35 0 -10 3 -2 5
17 5 19 0 27 -2 18 -5z m851 -7 c-2 -2 -15 -9 -29 -15 -24 -11 -24 -11 -6 3
16 13 49 24 35 12z m-819 -37 c0 -5 5 -7 11 -3 12 7 5 -71 -11 -124 -12 -40
-12 3 0 56 13 55 0 69 -66 75 l-49 3 58 2 c34 1 57 -2 57 -9z m753 -20 c-8 -8
2 -23 38 -55 27 -24 46 -44 41 -44 -4 0 -33 22 -64 50 -30 27 -59 46 -63 42
-5 -4 -5 -1 -1 6 6 9 11 10 21 2 9 -8 14 -6 19 6 4 9 9 14 13 10 4 -3 2 -11
-4 -17z m-837 -44 c-4 -21 -3 -35 3 -35 5 0 12 12 14 28 4 27 4 27 6 1 0 -14
-5 -34 -13 -44 -13 -18 -14 -17 -21 13 -3 17 -4 41 0 52 10 33 18 23 11 -15z
m809 -7 c5 4 5 2 2 -4 -4 -6 14 -25 38 -43 24 -17 47 -37 51 -43 4 -6 -14 5
-41 26 -27 20 -51 32 -54 27 -4 -5 -14 4 -23 20 -17 28 -16 29 1 20 10 -6 22
-7 26 -3z m1742 -90 c-2 -13 -4 -5 -4 17 -1 22 1 32 4 23 2 -10 2 -28 0 -40z
m-1537 -6 c3 -3 -5 -1 -17 2 -17 6 -22 2 -25 -16 -2 -13 -11 -24 -20 -26 -26
-5 -24 38 2 45 11 3 20 10 20 15 0 9 11 3 40 -20z m-949 4 c15 9 10 -3 -8 -17
-11 -10 -14 -10 -9 -1 5 8 1 12 -11 12 -15 0 -16 2 -3 10 10 6 16 6 18 0 2 -6
8 -8 13 -4z m844 -26 c3 -5 1 -10 -4 -10 -6 0 -11 5 -11 10 0 6 2 10 4 10 3 0
8 -4 11 -10z m-148 -47 c-3 -10 -5 -2 -5 17 0 19 2 27 5 18 2 -10 2 -26 0 -35z
m280 11 c-5 -5 -57 13 -57 20 0 3 14 0 31 -6 16 -6 28 -12 26 -14z m456 19
c-7 -2 -21 -2 -30 0 -10 3 -4 5 12 5 17 0 24 -2 18 -5z m-543 -29 c0 -2 -9 -4
-21 -4 -11 0 -18 4 -14 10 5 8 35 3 35 -6z m1420 -19 c28 -30 42 -31 78 -6 45
33 67 31 70 -5 2 -25 -3 -37 -24 -53 -15 -11 -33 -21 -40 -21 -8 0 -32 20 -55
45 -40 43 -76 64 -48 28 11 -15 10 -15 -8 1 -13 10 -20 23 -17 27 9 14 19 10
44 -16z m-1470 12 c0 -2 -10 -12 -22 -23 l-23 -19 19 23 c18 21 26 27 26 19z
m-460 -17 c8 -5 11 -10 5 -10 -5 0 -17 5 -25 10 -8 5 -10 10 -5 10 6 0 17 -5
25 -10z m527 -57 c-2 -16 -4 -5 -4 22 0 28 2 40 4 28 2 -13 2 -35 0 -50z m-25
-5 c-5 -107 -9 -117 -11 -25 0 48 2 87 7 87 4 0 6 -28 4 -62z m488 12 c-6 -11
-13 -20 -16 -20 -2 0 0 9 6 20 6 11 13 20 16 20 2 0 0 -9 -6 -20z m-650 -25
c0 -5 -5 -3 -10 5 -5 8 -10 20 -10 25 0 6 5 3 10 -5 5 -8 10 -19 10 -25z m45
-20 c-4 -28 11 -42 62 -61 21 -7 30 -13 20 -14 -10 0 -28 5 -39 11 -15 8 -22
8 -28 -1 -5 -8 -14 -3 -28 17 -25 35 -26 40 -10 58 19 21 26 18 23 -10z m578
0 c-3 -9 -8 -14 -10 -11 -3 3 -2 9 2 15 9 16 15 13 8 -4z m968 -6 c-30 -10
-56 -17 -58 -15 -5 5 77 34 97 34 8 1 -9 -8 -39 -19z m-1394 -41 c-3 -7 -5 -2
-5 12 0 14 2 19 5 13 2 -7 2 -19 0 -25z m1490 26 c-3 -3 -12 -4 -19 -1 -8 3
-5 6 6 6 11 1 17 -2 13 -5z m-349 -21 c-10 -2 -28 -2 -40 0 -13 2 -5 4 17 4
22 1 32 -1 23 -4z m-85 -10 c-13 -2 -35 -2 -50 0 -16 2 -5 4 22 4 28 0 40 -2
28 -4z m-100 -10 c-13 -2 -35 -2 -50 0 -16 2 -5 4 22 4 28 0 40 -2 28 -4z
m-1030 -30 c-7 -2 -19 -2 -25 0 -7 3 -2 5 12 5 14 0 19 -2 13 -5z m542 -23
c22 0 26 -3 15 -9 -9 -6 -36 -4 -70 5 -43 11 -47 13 -15 9 22 -3 54 -5 70 -5z
m55 -20 c-11 -7 -5 -10 25 -11 22 -1 32 -3 22 -6 -11 -3 -35 -2 -55 2 -26 5
-32 9 -21 16 8 5 21 9 29 9 13 0 13 -1 0 -10z"/>
<path d="M1025 1076 c10 -14 19 -26 22 -26 7 0 -17 39 -28 46 -6 3 -3 -5 6
-20z"/>
<path d="M720 1050 c0 -6 7 -10 15 -10 8 0 15 2 15 4 0 2 -7 6 -15 10 -8 3
-15 1 -15 -4z"/>
<path d="M450 990 c8 -5 20 -10 25 -10 6 0 3 5 -5 10 -8 5 -19 10 -25 10 -5 0
-3 -5 5 -10z"/>
<path d="M435 958 c-16 -6 -33 -15 -36 -21 -4 -5 -12 -6 -18 -3 -6 4 -11 2
-11 -4 0 -27 42 -216 55 -247 8 -18 10 -33 5 -33 -4 0 -10 5 -12 11 -2 7 -19
9 -49 4 l-46 -7 0 -44 c0 -27 4 -40 9 -32 4 7 8 9 8 3 0 -5 26 -11 58 -12 31
-1 98 -11 147 -23 50 -12 97 -23 105 -25 76 -18 172 -36 176 -33 8 8 -256 89
-267 82 -8 -4 -9 -3 -5 4 4 7 1 12 -6 12 -7 0 -30 12 -51 26 -32 21 -41 23
-55 13 -16 -12 -16 -12 0 5 16 18 18 18 50 -1 31 -18 36 -19 66 -5 38 18 38
21 13 120 -18 69 -25 116 -22 133 1 9 216 -54 298 -86 36 -15 67 -24 70 -22
14 15 -388 198 -430 196 -12 0 -35 -5 -52 -11z"/>
<path d="M2474 822 c18 -21 29 -23 27 -5 -1 4 -4 8 -8 8 -5 0 -15 4 -23 9 -9
6 -7 1 4 -12z"/>
<path d="M1396 782 c37 -31 86 -63 80 -51 -5 8 4 -1 19 -19 15 -18 31 -29 36
-26 10 6 73 -15 66 -23 -2 -2 -17 1 -33 7 l-29 11 29 -30 c24 -25 38 -31 70
-30 l41 0 -32 16 c-23 12 -33 24 -33 40 0 13 5 23 10 23 6 0 10 -9 10 -21 0
-14 11 -25 38 -36 20 -8 40 -20 44 -26 4 -6 21 4 43 26 25 25 47 37 73 40 l37
4 -41 1 c-23 1 -47 8 -53 16 -14 17 -132 49 -255 71 -99 17 -135 19 -120 7z"/>
<path d="M835 771 c-19 -33 -23 -117 -5 -135 19 -19 31 16 27 77 -5 61 -10 76
-22 58z"/>
<path d="M2530 750 c-9 -6 -10 -10 -3 -10 6 0 15 5 18 10 8 12 4 12 -15 0z"/>
<path d="M2438 713 c7 -3 16 -2 19 1 4 3 -2 6 -13 5 -11 0 -14 -3 -6 -6z"/>
<path d="M2231 691 c-10 -6 1 -8 30 -4 24 3 46 7 48 9 10 9 -65 3 -78 -5z"/>
<path d="M2348 693 c7 -3 16 -2 19 1 4 3 -2 6 -13 5 -11 0 -14 -3 -6 -6z"/>
<path d="M2038 673 c23 -2 61 -2 85 0 23 2 4 4 -43 4 -47 0 -66 -2 -42 -4z"/>
<path d="M1258 633 c7 -3 16 -2 19 1 4 3 -2 6 -13 5 -11 0 -14 -3 -6 -6z"/>
<path d="M1325 615 c22 -8 49 -13 60 -13 11 0 -2 6 -30 14 -63 17 -84 16 -30
-1z"/>
<path d="M1418 593 c7 -3 16 -2 19 1 4 3 -2 6 -13 5 -11 0 -14 -3 -6 -6z"/>
<path d="M1740 530 c-16 -6 -6 -7 30 -3 30 3 57 7 59 9 8 7 -64 2 -89 -6z"/>
<path d="M2043 533 c9 -2 23 -2 30 0 6 3 -1 5 -18 5 -16 0 -22 -2 -12 -5z"/>
<path d="M2085 521 c-7 -18 0 -25 20 -17 9 3 14 10 11 15 -4 5 0 11 6 14 7 3
3 4 -9 4 -12 -1 -25 -8 -28 -16z"/>
<path d="M1835 520 l-40 -7 50 -1 c28 -1 57 3 65 8 18 11 -11 11 -75 0z"/>
<path d="M1375 343 c-25 -6 -43 -21 -56 -45 -18 -34 24 -21 54 17 15 19 27 34
25 34 -2 -1 -12 -4 -23 -6z"/>
<path d="M1600 296 c0 -2 7 -7 16 -10 8 -3 12 -2 9 4 -6 10 -25 14 -25 6z"/>
<path d="M2238 1033 c7 -3 16 -2 19 1 4 3 -2 6 -13 5 -11 0 -14 -3 -6 -6z"/>
<path d="M1106 525 c4 -8 8 -15 10 -15 2 0 4 7 4 15 0 8 -4 15 -10 15 -5 0 -7
-7 -4 -15z"/>
<path d="M2638 453 c7 -3 16 -2 19 1 4 3 -2 6 -13 5 -11 0 -14 -3 -6 -6z"/>
<path d="M966 341 c-3 -4 4 -17 17 -27 22 -19 22 -19 4 2 -9 11 -14 24 -10 27
3 4 4 7 0 7 -3 0 -8 -4 -11 -9z"/>
<path d="M0 982 c0 -5 7 -9 15 -9 8 0 12 4 9 9 -3 4 -9 8 -15 8 -5 0 -9 -4 -9
-8z"/>
<path d="M2502 942 c-8 -6 -2 -9 18 -9 20 0 26 3 18 9 -7 4 -15 8 -18 8 -3 0
-11 -4 -18 -8z"/>
</g>
</svg>
