<?xml version="1.0" standalone="no"?>
<!DOCTYPE svg PUBLIC "-//W3C//DTD SVG 20010904//EN"
 "http://www.w3.org/TR/2001/REC-SVG-20010904/DTD/svg10.dtd">
<svg version="1.0" xmlns="http://www.w3.org/2000/svg"
 width="1280.000000pt" height="1280.000000pt" viewBox="0 0 1280.000000 1280.000000"
 preserveAspectRatio="xMidYMid meet">
<g transform="translate(0.000000,1280.000000) scale(0.100000,-0.100000)"
fill="#000000" stroke="none">
<path d="M5300 8451 c-597 -142 -1426 -338 -1844 -436 -675 -159 -760 -182
-773 -202 -9 -13 -13 -33 -9 -47 7 -27 -29 -11 925 -422 343 -147 625 -273
628 -280 2 -7 -29 -79 -69 -161 -105 -210 -198 -504 -198 -622 0 -40 20 -71
45 -71 7 0 67 15 132 34 265 76 481 107 748 107 286 1 407 -20 770 -131 231
-70 389 -104 565 -121 207 -19 347 -8 760 64 80 14 192 31 250 38 132 15 454
6 600 -16 227 -35 505 -112 694 -191 97 -41 130 -43 151 -10 15 23 15 32 0
113 -24 133 -79 334 -128 475 -33 91 -42 129 -34 137 18 18 31 13 73 -25 145
-132 246 -199 431 -290 62 -30 117 -63 123 -74 15 -27 12 -105 -4 -145 -23
-55 -103 -132 -212 -206 -118 -79 -148 -112 -211 -234 -69 -135 -129 -227
-266 -412 -143 -194 -175 -243 -252 -382 -104 -192 -235 -502 -282 -671 l-16
-60 27 -29 c71 -74 228 -109 342 -76 84 24 91 33 99 126 8 92 21 110 30 42 12
-92 16 -104 42 -116 20 -9 30 -8 51 4 l27 15 1 169 c0 179 9 268 27 262 6 -2
25 -48 43 -103 40 -126 96 -239 129 -260 23 -15 27 -15 51 0 14 10 28 24 31
32 3 8 -13 61 -36 118 -55 139 -73 222 -73 341 0 109 15 186 62 319 30 85 111
259 173 373 29 53 37 83 51 190 24 173 21 165 69 195 170 108 302 286 314 427
13 138 -42 207 -248 311 -199 101 -348 204 -327 225 2 2 298 74 658 160 359
85 659 160 667 166 7 6 13 27 13 45 0 26 -6 36 -27 47 -16 8 -827 352 -1804
766 -1755 742 -1777 751 -1840 750 -46 -1 -371 -74 -1149 -258z"/>
</g>
</svg>
