<?xml version="1.0" standalone="no"?>
<!DOCTYPE svg PUBLIC "-//W3C//DTD SVG 20010904//EN"
 "http://www.w3.org/TR/2001/REC-SVG-20010904/DTD/svg10.dtd">
<svg version="1.0" xmlns="http://www.w3.org/2000/svg"
 width="228.000000pt" height="221.000000pt" viewBox="0 0 228.000000 221.000000"
 preserveAspectRatio="xMidYMid meet">

<g transform="translate(0.000000,221.000000) scale(0.100000,-0.100000)"
fill="#000000" stroke="none">
<path d="M1010 2200 c-195 -40 -409 -260 -511 -524 -54 -139 -70 -220 -76
-371 l-6 -140 -184 -192 c-187 -196 -215 -235 -229 -320 -19 -122 125 -344
333 -511 122 -99 197 -135 276 -136 118 -2 218 69 427 302 l75 83 82 10 c92
11 223 46 313 84 216 91 536 350 654 529 191 290 143 543 -163 859 -166 171
-299 241 -456 241 -88 0 -169 -24 -237 -69 -20 -14 -40 -25 -43 -25 -3 0 -5
19 -5 43 0 82 -54 130 -155 141 -28 2 -70 1 -95 -4z m142 -101 c57 -30 22
-131 -116 -338 -42 -62 -79 -125 -83 -139 -8 -33 8 -56 40 -60 23 -3 35 12
121 142 105 157 169 223 266 275 170 91 328 49 522 -138 155 -148 253 -295
278 -417 34 -160 -54 -349 -246 -534 -247 -236 -493 -368 -747 -398 -66 -8
-69 -8 -140 31 -227 123 -382 288 -495 525 l-45 95 6 141 c8 207 48 346 150
519 57 97 194 234 271 271 88 42 166 51 218 25z m-660 -1142 c94 -183 253
-360 426 -474 48 -31 89 -58 91 -60 6 -4 -105 -130 -179 -203 -127 -125 -210
-148 -317 -91 -169 91 -394 345 -418 472 -8 45 23 124 66 165 l29 28 0 -37 c0
-21 6 -52 14 -70 19 -47 211 -284 249 -308 57 -35 126 -9 163 64 21 39 11 62
-55 132 -77 83 -150 181 -174 234 -10 24 -22 70 -25 103 -5 58 -4 60 34 99 21
21 41 39 44 39 3 0 26 -42 52 -93z"/>
</g>
</svg>
