<?xml version="1.0" standalone="no"?>
<!DOCTYPE svg PUBLIC "-//W3C//DTD SVG 20010904//EN"
 "http://www.w3.org/TR/2001/REC-SVG-20010904/DTD/svg10.dtd">
<svg version="1.0" xmlns="http://www.w3.org/2000/svg"
 width="200.000000pt" height="200.000000pt" viewBox="0 0 200.000000 200.000000"
 preserveAspectRatio="xMidYMid meet">

<g transform="translate(0.000000,200.000000) scale(0.100000,-0.100000)"
fill="#000000" stroke="none">
<path d="M878 1720 c-278 -50 -493 -244 -579 -520 -34 -107 -34 -293 0 -400
78 -250 251 -424 501 -501 62 -20 97 -24 200 -24 103 0 138 4 200 24 248 77
424 253 501 501 34 108 34 293 0 400 -77 248 -252 424 -496 500 -79 24 -249
35 -327 20z m92 -221 l0 -171 -57 6 c-73 8 -195 36 -207 47 -22 20 90 193 155
239 24 18 84 46 107 50 1 0 2 -77 2 -171z m161 126 c69 -45 187 -223 163 -244
-13 -12 -129 -39 -201 -47 l-63 -7 0 171 0 171 32 -9 c17 -5 48 -21 69 -35z
m-389 -43 c-20 -27 -51 -75 -67 -108 -17 -32 -31 -61 -33 -64 -5 -7 -112 51
-112 60 0 26 203 160 241 160 5 0 -8 -22 -29 -48z m553 20 c67 -34 175 -115
175 -132 0 -8 -93 -60 -106 -60 -5 0 -21 27 -36 59 -15 32 -46 82 -69 111 -36
46 -38 51 -18 45 13 -4 38 -14 54 -23z m-743 -219 c35 -20 64 -37 65 -38 1 0
-4 -25 -12 -55 -8 -30 -20 -101 -27 -157 l-12 -103 -119 0 -119 0 7 53 c8 60
40 168 63 212 24 47 76 125 84 125 3 0 35 -17 70 -37z m1016 -30 c45 -72 85
-183 97 -270 l7 -53 -119 0 -119 0 -12 98 c-6 53 -19 124 -27 157 -9 33 -12
61 -8 62 4 2 33 18 63 37 30 19 60 35 65 35 6 1 29 -29 53 -66z m-807 -52 c41
-10 104 -22 142 -26 l67 -7 0 -119 0 -119 -171 0 -172 0 7 68 c8 84 37 222 46
222 4 0 40 -9 81 -19z m582 -58 c9 -43 20 -108 23 -145 l7 -68 -172 0 -171 0
0 118 0 118 88 12 c48 7 107 18 132 26 76 24 75 24 93 -61z m-765 -375 c7 -57
19 -128 27 -158 8 -30 13 -55 12 -55 -1 -1 -30 -18 -65 -38 -35 -20 -66 -37
-70 -37 -4 0 -26 30 -50 68 -45 71 -85 182 -97 270 l-7 52 119 0 119 0 12
-102z m392 -17 l0 -119 -67 -7 c-38 -4 -101 -16 -142 -26 -41 -10 -77 -19 -81
-19 -9 0 -38 138 -46 223 l-7 67 172 0 171 0 0 -119z m396 52 c-8 -85 -37
-223 -46 -223 -4 0 -40 9 -81 19 -41 10 -104 22 -141 26 l-68 7 0 119 0 119
171 0 172 0 -7 -67z m299 15 c-12 -88 -52 -199 -97 -270 -24 -38 -46 -68 -50
-68 -5 0 -77 40 -136 75 -1 1 4 29 13 61 9 32 21 103 27 157 l12 97 119 0 119
0 -7 -52z m-695 -417 l0 -170 -32 9 c-49 15 -104 55 -147 110 -45 56 -96 154
-87 168 8 13 166 48 234 51 l32 1 0 -169z m250 142 c36 -8 69 -19 74 -24 12
-11 -36 -107 -85 -169 -43 -55 -98 -95 -147 -110 l-32 -9 0 171 0 171 63 -7
c34 -4 91 -14 127 -23z m-547 -113 c16 -33 46 -83 69 -111 36 -45 37 -50 17
-44 -75 23 -245 142 -228 159 11 11 95 56 104 55 6 0 23 -27 38 -59z m748 33
c27 -14 49 -29 49 -33 0 -10 -51 -54 -102 -89 -40 -27 -130 -71 -144 -71 -2 0
14 23 36 51 22 28 53 78 68 110 15 32 31 59 36 59 4 0 30 -12 57 -27z"/>
</g>
</svg>
