<?xml version="1.0" standalone="no"?>
<!DOCTYPE svg PUBLIC "-//W3C//DTD SVG 20010904//EN"
 "http://www.w3.org/TR/2001/REC-SVG-20010904/DTD/svg10.dtd">
<svg version="1.0" xmlns="http://www.w3.org/2000/svg"
 width="600.000000pt" height="600.000000pt" viewBox="0 0 600.000000 600.000000"
 preserveAspectRatio="xMidYMid meet">

<g transform="translate(0.000000,600.000000) scale(0.100000,-0.100000)"
fill="#000000" stroke="none">
<path d="M648 3508 c-109 -50 -198 -94 -198 -97 0 -3 28 -22 63 -42 34 -19
126 -72 204 -118 l142 -82 205 118 c113 65 202 121 198 125 -9 9 -401 188
-410 187 -4 0 -96 -41 -204 -91z m371 -19 c86 -39 159 -74 163 -78 8 -7 -319
-194 -331 -189 -46 19 -319 184 -314 189 10 9 304 147 317 148 5 1 79 -31 165
-70z"/>
<path d="M821 3521 c-35 -18 -35 -18 -12 -31 l23 -12 -28 -30 c-29 -29 -29
-29 -4 -20 14 6 47 20 73 31 65 28 72 27 47 -9 -25 -35 -23 -36 25 -13 19 9
38 14 41 10 4 -3 -12 -29 -35 -56 l-42 -49 23 -16 c12 -9 26 -16 30 -16 5 0
47 22 95 50 l87 49 -45 19 c-24 11 -88 40 -143 66 -54 25 -99 46 -100 46 0 -1
-16 -9 -35 -19z"/>
<path d="M661 3449 c-46 -22 -82 -41 -80 -44 22 -22 276 -154 288 -150 9 3 27
14 41 24 l24 19 -27 13 c-33 15 -34 26 -5 56 30 32 19 37 -36 14 -51 -23 -58
-16 -21 19 14 13 23 25 21 27 -2 3 -36 -9 -76 -26 -40 -17 -77 -31 -83 -31 -6
0 11 23 38 50 41 42 47 52 35 60 -22 14 -26 13 -119 -31z"/>
<path d="M1360 3367 c-18 -12 -135 -83 -260 -158 l-225 -136 -3 -144 c-4 -172
7 -409 18 -409 17 0 156 101 207 150 54 52 72 85 29 53 -13 -10 -22 -21 -20
-25 2 -4 -1 -10 -7 -14 -8 -5 -9 -3 -4 6 4 7 -29 -13 -74 -45 -46 -32 -86 -53
-92 -49 -8 4 -9 3 -5 -4 11 -18 20 -15 86 34 34 25 64 43 67 41 5 -6 -128
-107 -164 -126 -21 -11 -23 -9 -23 12 0 25 21 50 46 53 7 1 96 64 198 139 209
156 188 125 202 310 4 67 13 104 32 144 23 49 41 150 31 180 -3 6 -18 1 -39
-12z m-60 -307 c0 -16 -4 -30 -10 -30 -11 0 -14 43 -3 53 11 12 13 8 13 -23z
m-38 -53 c-8 -9 -17 -15 -20 -12 -2 2 -13 -6 -23 -18 l-19 -22 2 49 c3 50 27
79 29 34 0 -15 3 -18 6 -8 3 8 11 21 17 29 9 11 12 9 17 -10 4 -15 0 -31 -9
-42z m-72 -12 c0 -25 -4 -45 -10 -45 -11 0 -14 49 -4 74 10 26 14 18 14 -29z
m-41 -71 c-10 -12 -14 -12 -20 -2 -7 10 -9 9 -9 -3 0 -9 -7 -22 -15 -29 -13
-11 -15 -8 -15 14 0 35 28 66 41 45 6 -10 9 -11 10 -1 2 13 5 28 9 40 2 4 5
-6 7 -21 3 -16 -1 -35 -8 -43z m-69 -24 c0 -41 -19 -58 -21 -17 0 17 -3 15
-14 -13 -13 -35 -13 -35 -14 -6 -1 22 31 75 47 76 1 0 2 -18 2 -40z m-85 -59
c-9 -54 -21 -59 -28 -14 -7 41 -1 55 13 33 8 -12 10 -10 10 9 0 13 3 22 6 18
3 -3 3 -24 -1 -46z m22 -8 c-3 -10 -5 -2 -5 17 0 19 2 27 5 18 2 -10 2 -26 0
-35z"/>
<path d="M2172 3358 c-18 -24 -23 -55 -12 -84 14 -36 26 -44 68 -44 61 0 93
66 56 118 -12 17 -25 22 -58 22 -24 0 -48 -6 -54 -12z"/>
<path d="M4099 3348 c-6 -89 5 -656 13 -674 24 -52 140 -57 159 -7 12 33 13
30 -21 48 l-30 15 -2 313 -3 312 -57 3 c-42 2 -58 -1 -59 -10z"/>
<path d="M1612 3321 c-11 -7 -7 -43 23 -197 50 -262 93 -435 111 -455 18 -20
100 -34 144 -24 26 6 32 14 45 58 43 150 123 583 112 611 -8 19 -96 23 -115 4
-7 -7 -12 -37 -12 -67 0 -102 -63 -451 -81 -451 -11 0 -10 -3 -56 270 -27 165
-42 229 -55 242 -19 19 -92 25 -116 9z"/>
<path d="M4390 3315 c-9 -11 -10 -88 -3 -342 l8 -328 120 1 c109 0 125 3 165
25 55 30 86 74 99 142 14 70 1 122 -42 165 l-35 35 25 38 c47 71 39 180 -16
232 -36 35 -90 47 -207 47 -77 0 -104 -4 -114 -15z m214 -107 c16 -23 21 -92
10 -123 -4 -8 -20 -23 -36 -31 -27 -14 -32 -14 -46 0 -19 19 -27 112 -13 149
14 35 62 38 85 5z m20 -277 c27 -27 35 -121 13 -155 -21 -32 -78 -51 -107 -36
-18 10 -20 20 -20 103 0 61 4 97 13 106 17 17 76 7 101 -18z"/>
<path d="M2848 3298 c-9 -7 -23 -40 -32 -72 -14 -57 -27 -76 -53 -76 -15 0
-25 -32 -17 -53 3 -9 14 -19 24 -22 16 -5 18 -22 22 -178 3 -139 7 -178 21
-204 31 -58 99 -78 157 -48 23 12 30 22 30 45 0 27 -9 35 -33 31 -4 -1 -17 3
-27 9 -19 10 -20 22 -20 169 0 128 3 161 15 171 8 7 21 10 29 7 18 -7 32 10
34 41 1 24 -2 26 -50 36 -27 6 -28 9 -28 71 0 53 -3 66 -19 75 -25 13 -34 13
-53 -2z"/>
<path d="M375 3218 c7 -87 25 -317 25 -327 0 -8 363 -281 374 -281 4 0 5 95 4
212 l-3 212 -195 123 c-107 68 -199 123 -203 123 -4 0 -5 -28 -2 -62z m90
-148 c10 -11 23 -20 30 -20 22 0 44 -35 43 -69 -1 -33 -1 -33 -14 -10 -7 13
-16 23 -21 23 -22 -3 -73 30 -73 48 0 4 10 -2 22 -14 25 -25 36 -11 18 22 -8
15 -18 20 -31 17 -12 -3 -19 0 -19 9 0 20 24 17 45 -6z m125 -114 c0 -6 5 -4
10 4 8 13 12 12 27 -4 17 -18 17 -18 1 -13 -23 8 -24 -16 -1 -39 17 -16 18
-16 24 7 l7 24 1 -26 c1 -14 10 -34 21 -44 19 -18 20 -17 20 4 0 16 5 21 18
19 19 -4 27 -48 8 -48 -6 0 -2 -7 8 -15 11 -8 17 -18 13 -21 -3 -3 -14 4 -24
15 -9 12 -22 21 -27 21 -8 0 -82 56 -113 86 -7 7 -18 14 -24 16 -8 3 -10 14
-5 34 7 28 8 28 22 10 8 -11 14 -25 14 -30z"/>
<path d="M500 3022 c0 -12 19 -26 26 -19 2 2 -2 10 -11 17 -9 8 -15 8 -15 2z"/>
<path d="M2599 3121 c-34 -44 -54 -53 -46 -22 9 34 -11 51 -59 51 l-44 0 2
-252 3 -253 45 -2 c24 -1 50 3 57 9 10 8 13 50 13 160 0 170 10 204 61 215 37
7 56 35 61 88 3 38 2 40 -29 43 -26 3 -36 -3 -64 -37z"/>
<path d="M3720 3154 c-92 -30 -100 -35 -100 -64 0 -39 12 -44 70 -30 91 22
137 -9 128 -86 -3 -28 -6 -29 -68 -36 -104 -12 -160 -69 -160 -165 0 -70 19
-105 69 -127 48 -22 93 -16 141 19 41 30 50 31 50 5 0 -21 33 -35 67 -28 16 3
19 19 25 138 4 74 4 175 -1 223 -9 96 -22 120 -78 143 -31 14 -112 18 -143 8z
m103 -326 c6 -61 -10 -92 -51 -96 -18 -2 -40 2 -48 9 -25 21 -13 99 20 121 6
4 25 8 42 8 30 0 32 -2 37 -42z"/>
<path d="M4969 3137 c-105 -54 -143 -275 -73 -423 25 -53 77 -79 154 -79 147
0 213 85 214 275 0 95 -13 146 -52 192 -52 62 -161 78 -243 35z m134 -85 c34
-37 46 -158 26 -252 -19 -90 -91 -105 -125 -25 -14 35 -19 166 -8 223 13 63
72 93 107 54z"/>
<path d="M5353 3153 c-18 -2 -33 -8 -33 -12 0 -5 20 -54 45 -111 25 -57 45
-112 45 -123 0 -11 -22 -69 -50 -129 -27 -60 -50 -115 -50 -123 0 -19 49 -20
94 -1 29 12 36 22 52 77 11 34 24 64 29 66 6 1 18 -24 28 -57 24 -84 43 -100
117 -100 39 0 60 4 60 12 0 6 -21 55 -47 107 -66 137 -69 188 -14 296 25 50
37 83 31 89 -11 11 -101 9 -112 -2 -5 -5 -14 -28 -21 -52 -7 -24 -18 -45 -24
-47 -6 -2 -19 19 -28 47 -16 49 -43 73 -78 68 -7 0 -27 -3 -44 -5z"/>
<path d="M2171 3136 c-9 -10 -11 -75 -9 -246 3 -252 3 -250 64 -250 65 0 65
-1 62 265 l-3 240 -51 3 c-35 2 -54 -2 -63 -12z"/>
<path d="M3120 3135 c-9 -11 -11 -64 -8 -207 5 -220 14 -254 75 -283 43 -21
87 -14 133 20 34 25 50 25 50 0 0 -19 37 -27 73 -18 l27 8 1 230 c0 127 0 238
0 248 -1 16 -9 18 -58 15 l-58 -3 -3 -190 c-2 -179 -3 -191 -23 -207 -28 -24
-52 -23 -75 3 -17 19 -19 38 -19 198 0 97 -4 182 -8 189 -11 17 -92 15 -107
-3z"/>
<path d="M1024 2550 c-87 -66 -162 -120 -167 -120 -5 0 -74 50 -153 111 -80
61 -147 109 -150 106 -7 -6 7 -37 16 -37 5 0 46 -30 92 -68 146 -119 168 -132
213 -132 78 0 149 37 240 125 45 44 47 45 41 19 -12 -45 -35 -94 -43 -92 -4 1
-37 -12 -73 -30 -36 -18 -98 -38 -138 -45 -59 -10 -70 -15 -62 -27 22 -36 173
0 247 58 26 21 60 61 75 88 29 53 47 147 30 157 -5 4 -81 -47 -168 -113z"/>
</g>
</svg>
